# 3ds Max Wavefront OBJ Exporter v0.97b - (c)2007 guruware
# File Created: 19.10.2017 14:43:20

#
# object Flag
#

v  0.023179 -0.058313 0.023081
v  -0.023371 -0.058471 -0.023071
v  -0.012666 1.591371 -0.012762
v  0.013419 1.591371 0.013323
v  -0.012666 2.282557 -0.012763
v  0.013419 2.282557 0.013322
v  -0.580100 1.608456 -0.739793
v  -0.665704 2.169093 -0.725140
v  -0.840837 1.666612 -0.506847
v  -1.117584 2.247272 -0.552382
v  -1.138906 1.726345 -0.738165
v  -1.311351 2.176162 -0.712069
v  -1.369417 1.909473 -1.420501
v  -1.470720 2.080783 -1.483093
# 14 vertices

vn 0.704109 -0.000037 -0.710092
vn 0.707117 -0.000086 -0.707097
vn 0.707078 -0.000084 -0.707135
vn 0.704065 -0.000035 -0.710135
vn 0.707118 -0.000000 -0.707095
vn 0.707118 -0.000000 -0.707095
vn 0.707078 -0.000084 -0.707135
vn 0.707117 -0.000086 -0.707097
vn 0.759408 0.059515 -0.647887
vn 0.759408 0.059515 -0.647887
vn 0.759408 0.059515 -0.647887
vn 0.759408 0.059515 -0.647887
vn -0.512728 -0.185469 -0.838279
vn -0.512728 -0.185469 -0.838279
vn -0.512728 -0.185469 -0.838279
vn -0.512728 -0.185469 -0.838279
vn 0.599516 0.246972 -0.761305
vn 0.599516 0.246972 -0.761305
vn 0.599516 0.246972 -0.761305
vn 0.599516 0.246972 -0.761305
vn 0.897775 0.382881 -0.217721
vn 0.897775 0.382881 -0.217721
vn 0.897775 0.382881 -0.217721
vn 0.897775 0.382881 -0.217721
# 24 vertex normals

vt 0.464145 0.488533 0.000000
vt 0.494396 0.488533 0.000000
vt 0.494396 0.503658 0.000000
vt 0.464145 0.503658 0.000000
vt 0.494396 0.518784 0.000000
vt 0.464145 0.518784 0.000000
vt 0.884612 0.102368 0.000000
vt 0.884612 0.088121 0.000000
vt 0.896501 0.089724 0.000000
vt 0.896501 0.100765 0.000000
vt 0.902722 0.089724 0.000000
vt 0.902722 0.100765 0.000000
vt 0.909767 0.090728 0.000000
vt 0.909767 0.099760 0.000000
vt 0.919149 0.092278 0.000000
vt 0.919150 0.098210 0.000000
# 16 texture coords

g Flag
s 8
f 2/2/1 3/3/2 4/4/3 1/1/4 
f 5/5/5 6/6/6 4/4/7 3/3/8 
s off
f 5/7/9 3/8/10 7/9/11 8/10/12 
f 8/10/13 7/9/14 9/11/15 10/12/16 
f 10/12/17 9/11/18 11/13/19 12/14/20 
f 12/14/21 11/13/22 13/15/23 14/16/24 
# 6 polygons

